<mxfile host="app.diagrams.net" modified="2023-10-03T11:19:56.719Z" agent="Mozilla/5.0 (Windows NT 10.0; Win64; x64) AppleWebKit/537.36 (KHTML, like Gecko) Chrome/116.0.5845.2271 YaBrowser/23.9.0.2271 Yowser/2.5 Safari/537.36" etag="RWomwhX6nQVURol4btvi" version="22.0.1" type="device">
  <diagram name="Страница — 1" id="DnN_s7nIeV5jD8fEj_ri">
    <mxGraphModel dx="2927" dy="2319" grid="1" gridSize="10" guides="1" tooltips="1" connect="1" arrows="1" fold="1" page="1" pageScale="1" pageWidth="827" pageHeight="1169" math="0" shadow="0">
      <root>
        <mxCell id="0" />
        <mxCell id="1" parent="0" />
        <mxCell id="xLMiuTTUpVqssLKdSycB-22" style="edgeStyle=orthogonalEdgeStyle;shape=link;rounded=0;orthogonalLoop=1;jettySize=auto;html=1;exitX=0.5;exitY=1;exitDx=0;exitDy=0;entryX=0.5;entryY=0;entryDx=0;entryDy=0;" edge="1" parent="1" source="xLMiuTTUpVqssLKdSycB-1" target="xLMiuTTUpVqssLKdSycB-5">
          <mxGeometry relative="1" as="geometry" />
        </mxCell>
        <mxCell id="xLMiuTTUpVqssLKdSycB-23" style="edgeStyle=orthogonalEdgeStyle;shape=link;rounded=0;orthogonalLoop=1;jettySize=auto;html=1;exitX=0.5;exitY=0;exitDx=0;exitDy=0;entryX=0.5;entryY=1;entryDx=0;entryDy=0;" edge="1" parent="1" source="xLMiuTTUpVqssLKdSycB-1" target="xLMiuTTUpVqssLKdSycB-2">
          <mxGeometry relative="1" as="geometry" />
        </mxCell>
        <mxCell id="xLMiuTTUpVqssLKdSycB-25" style="edgeStyle=orthogonalEdgeStyle;shape=link;rounded=0;orthogonalLoop=1;jettySize=auto;html=1;exitX=0;exitY=0.5;exitDx=0;exitDy=0;entryX=1;entryY=0.5;entryDx=0;entryDy=0;" edge="1" parent="1" source="xLMiuTTUpVqssLKdSycB-1" target="xLMiuTTUpVqssLKdSycB-4">
          <mxGeometry relative="1" as="geometry" />
        </mxCell>
        <mxCell id="xLMiuTTUpVqssLKdSycB-43" style="edgeStyle=orthogonalEdgeStyle;shape=link;rounded=0;orthogonalLoop=1;jettySize=auto;html=1;exitX=0.75;exitY=0;exitDx=0;exitDy=0;entryX=0;entryY=0.5;entryDx=0;entryDy=0;width=5;" edge="1" parent="1" source="xLMiuTTUpVqssLKdSycB-1" target="xLMiuTTUpVqssLKdSycB-42">
          <mxGeometry relative="1" as="geometry" />
        </mxCell>
        <mxCell id="xLMiuTTUpVqssLKdSycB-48" style="edgeStyle=orthogonalEdgeStyle;shape=link;rounded=0;orthogonalLoop=1;jettySize=auto;html=1;exitX=0.894;exitY=1.055;exitDx=0;exitDy=0;entryX=0;entryY=0;entryDx=0;entryDy=0;exitPerimeter=0;" edge="1" parent="1" source="xLMiuTTUpVqssLKdSycB-1" target="xLMiuTTUpVqssLKdSycB-47">
          <mxGeometry relative="1" as="geometry" />
        </mxCell>
        <mxCell id="xLMiuTTUpVqssLKdSycB-1" value="Сотрудник" style="whiteSpace=wrap;html=1;align=center;" vertex="1" parent="1">
          <mxGeometry x="600" y="90" width="100" height="40" as="geometry" />
        </mxCell>
        <mxCell id="xLMiuTTUpVqssLKdSycB-38" style="edgeStyle=orthogonalEdgeStyle;shape=link;rounded=0;orthogonalLoop=1;jettySize=auto;html=1;exitX=1;exitY=0.75;exitDx=0;exitDy=0;entryX=0;entryY=0.5;entryDx=0;entryDy=0;" edge="1" parent="1" source="xLMiuTTUpVqssLKdSycB-2" target="xLMiuTTUpVqssLKdSycB-37">
          <mxGeometry relative="1" as="geometry" />
        </mxCell>
        <mxCell id="xLMiuTTUpVqssLKdSycB-39" style="edgeStyle=orthogonalEdgeStyle;shape=link;rounded=0;orthogonalLoop=1;jettySize=auto;html=1;exitX=1;exitY=0.5;exitDx=0;exitDy=0;entryX=0;entryY=0.5;entryDx=0;entryDy=0;" edge="1" parent="1" source="xLMiuTTUpVqssLKdSycB-2" target="xLMiuTTUpVqssLKdSycB-36">
          <mxGeometry relative="1" as="geometry" />
        </mxCell>
        <mxCell id="xLMiuTTUpVqssLKdSycB-40" style="edgeStyle=orthogonalEdgeStyle;shape=link;rounded=0;orthogonalLoop=1;jettySize=auto;html=1;exitX=0.75;exitY=0;exitDx=0;exitDy=0;entryX=0.5;entryY=1;entryDx=0;entryDy=0;" edge="1" parent="1" source="xLMiuTTUpVqssLKdSycB-2" target="xLMiuTTUpVqssLKdSycB-35">
          <mxGeometry relative="1" as="geometry" />
        </mxCell>
        <mxCell id="xLMiuTTUpVqssLKdSycB-41" style="edgeStyle=orthogonalEdgeStyle;shape=link;rounded=0;orthogonalLoop=1;jettySize=auto;html=1;exitX=0.5;exitY=0;exitDx=0;exitDy=0;entryX=0.5;entryY=1;entryDx=0;entryDy=0;" edge="1" parent="1" source="xLMiuTTUpVqssLKdSycB-2" target="xLMiuTTUpVqssLKdSycB-33">
          <mxGeometry relative="1" as="geometry" />
        </mxCell>
        <mxCell id="xLMiuTTUpVqssLKdSycB-2" value="Смена" style="shape=ext;margin=3;double=1;whiteSpace=wrap;html=1;align=center;" vertex="1" parent="1">
          <mxGeometry x="770" y="-50" width="100" height="40" as="geometry" />
        </mxCell>
        <mxCell id="xLMiuTTUpVqssLKdSycB-21" style="edgeStyle=orthogonalEdgeStyle;shape=link;rounded=0;orthogonalLoop=1;jettySize=auto;html=1;exitX=0.25;exitY=0;exitDx=0;exitDy=0;entryX=1;entryY=0.5;entryDx=0;entryDy=0;width=7.142857142857142;" edge="1" parent="1" source="xLMiuTTUpVqssLKdSycB-3" target="xLMiuTTUpVqssLKdSycB-5">
          <mxGeometry relative="1" as="geometry" />
        </mxCell>
        <mxCell id="xLMiuTTUpVqssLKdSycB-106" style="edgeStyle=orthogonalEdgeStyle;shape=link;rounded=0;orthogonalLoop=1;jettySize=auto;html=1;exitX=1;exitY=0;exitDx=0;exitDy=0;entryX=0;entryY=0.5;entryDx=0;entryDy=0;" edge="1" parent="1" source="xLMiuTTUpVqssLKdSycB-3" target="xLMiuTTUpVqssLKdSycB-105">
          <mxGeometry relative="1" as="geometry" />
        </mxCell>
        <mxCell id="xLMiuTTUpVqssLKdSycB-108" style="edgeStyle=orthogonalEdgeStyle;shape=link;rounded=0;orthogonalLoop=1;jettySize=auto;html=1;exitX=1;exitY=0.25;exitDx=0;exitDy=0;entryX=0;entryY=0.5;entryDx=0;entryDy=0;" edge="1" parent="1" source="xLMiuTTUpVqssLKdSycB-3" target="xLMiuTTUpVqssLKdSycB-107">
          <mxGeometry relative="1" as="geometry" />
        </mxCell>
        <mxCell id="xLMiuTTUpVqssLKdSycB-110" style="edgeStyle=orthogonalEdgeStyle;shape=link;rounded=0;orthogonalLoop=1;jettySize=auto;html=1;exitX=1;exitY=0.75;exitDx=0;exitDy=0;entryX=0;entryY=0;entryDx=0;entryDy=0;" edge="1" parent="1" source="xLMiuTTUpVqssLKdSycB-3" target="xLMiuTTUpVqssLKdSycB-109">
          <mxGeometry relative="1" as="geometry" />
        </mxCell>
        <mxCell id="xLMiuTTUpVqssLKdSycB-3" value="Кухня" style="whiteSpace=wrap;html=1;align=center;" vertex="1" parent="1">
          <mxGeometry x="827" y="420" width="100" height="40" as="geometry" />
        </mxCell>
        <mxCell id="xLMiuTTUpVqssLKdSycB-26" style="edgeStyle=orthogonalEdgeStyle;shape=link;rounded=0;orthogonalLoop=1;jettySize=auto;html=1;exitX=0;exitY=0.5;exitDx=0;exitDy=0;entryX=0.5;entryY=0;entryDx=0;entryDy=0;" edge="1" parent="1" source="xLMiuTTUpVqssLKdSycB-4" target="xLMiuTTUpVqssLKdSycB-6">
          <mxGeometry relative="1" as="geometry" />
        </mxCell>
        <mxCell id="xLMiuTTUpVqssLKdSycB-53" style="edgeStyle=orthogonalEdgeStyle;shape=link;rounded=0;orthogonalLoop=1;jettySize=auto;html=1;exitX=0.25;exitY=0;exitDx=0;exitDy=0;entryX=0.5;entryY=1;entryDx=0;entryDy=0;" edge="1" parent="1" source="xLMiuTTUpVqssLKdSycB-4" target="xLMiuTTUpVqssLKdSycB-52">
          <mxGeometry relative="1" as="geometry" />
        </mxCell>
        <mxCell id="xLMiuTTUpVqssLKdSycB-55" style="edgeStyle=orthogonalEdgeStyle;shape=link;rounded=0;orthogonalLoop=1;jettySize=auto;html=1;exitX=0.75;exitY=0;exitDx=0;exitDy=0;entryX=0.5;entryY=1;entryDx=0;entryDy=0;" edge="1" parent="1" source="xLMiuTTUpVqssLKdSycB-4" target="xLMiuTTUpVqssLKdSycB-54">
          <mxGeometry relative="1" as="geometry" />
        </mxCell>
        <mxCell id="xLMiuTTUpVqssLKdSycB-4" value="Навыки" style="whiteSpace=wrap;html=1;align=center;" vertex="1" parent="1">
          <mxGeometry x="414" y="50" width="100" height="40" as="geometry" />
        </mxCell>
        <mxCell id="xLMiuTTUpVqssLKdSycB-115" style="edgeStyle=orthogonalEdgeStyle;shape=link;rounded=0;orthogonalLoop=1;jettySize=auto;html=1;exitX=0;exitY=1;exitDx=0;exitDy=0;entryX=0.5;entryY=0;entryDx=0;entryDy=0;" edge="1" parent="1" source="xLMiuTTUpVqssLKdSycB-5" target="xLMiuTTUpVqssLKdSycB-111">
          <mxGeometry relative="1" as="geometry" />
        </mxCell>
        <mxCell id="xLMiuTTUpVqssLKdSycB-116" style="edgeStyle=orthogonalEdgeStyle;shape=link;rounded=0;orthogonalLoop=1;jettySize=auto;html=1;exitX=0.5;exitY=1;exitDx=0;exitDy=0;entryX=1;entryY=0;entryDx=0;entryDy=0;" edge="1" parent="1" source="xLMiuTTUpVqssLKdSycB-5" target="xLMiuTTUpVqssLKdSycB-113">
          <mxGeometry relative="1" as="geometry" />
        </mxCell>
        <mxCell id="xLMiuTTUpVqssLKdSycB-117" style="edgeStyle=orthogonalEdgeStyle;shape=link;rounded=0;orthogonalLoop=1;jettySize=auto;html=1;exitX=1;exitY=1;exitDx=0;exitDy=0;entryX=0;entryY=0;entryDx=0;entryDy=0;" edge="1" parent="1" source="xLMiuTTUpVqssLKdSycB-5" target="xLMiuTTUpVqssLKdSycB-114">
          <mxGeometry relative="1" as="geometry" />
        </mxCell>
        <mxCell id="xLMiuTTUpVqssLKdSycB-119" style="edgeStyle=orthogonalEdgeStyle;shape=link;rounded=0;orthogonalLoop=1;jettySize=auto;html=1;exitX=0.5;exitY=1;exitDx=0;exitDy=0;entryX=0.5;entryY=0;entryDx=0;entryDy=0;" edge="1" parent="1" source="xLMiuTTUpVqssLKdSycB-5" target="xLMiuTTUpVqssLKdSycB-118">
          <mxGeometry relative="1" as="geometry" />
        </mxCell>
        <mxCell id="xLMiuTTUpVqssLKdSycB-5" value="Оформление Заказа" style="shape=rhombus;perimeter=rhombusPerimeter;whiteSpace=wrap;html=1;align=center;" vertex="1" parent="1">
          <mxGeometry x="510" y="280" width="140" height="70" as="geometry" />
        </mxCell>
        <mxCell id="xLMiuTTUpVqssLKdSycB-57" style="edgeStyle=orthogonalEdgeStyle;shape=link;rounded=0;orthogonalLoop=1;jettySize=auto;html=1;exitX=1;exitY=0.25;exitDx=0;exitDy=0;entryX=0;entryY=0.5;entryDx=0;entryDy=0;" edge="1" parent="1" source="xLMiuTTUpVqssLKdSycB-6" target="xLMiuTTUpVqssLKdSycB-56">
          <mxGeometry relative="1" as="geometry" />
        </mxCell>
        <mxCell id="xLMiuTTUpVqssLKdSycB-125" style="edgeStyle=orthogonalEdgeStyle;shape=link;rounded=0;orthogonalLoop=1;jettySize=auto;html=1;exitX=0.5;exitY=1;exitDx=0;exitDy=0;entryX=0.75;entryY=0;entryDx=0;entryDy=0;" edge="1" parent="1" source="xLMiuTTUpVqssLKdSycB-6" target="xLMiuTTUpVqssLKdSycB-12">
          <mxGeometry relative="1" as="geometry" />
        </mxCell>
        <mxCell id="xLMiuTTUpVqssLKdSycB-6" value="Список Блюд" style="whiteSpace=wrap;html=1;align=center;" vertex="1" parent="1">
          <mxGeometry x="260" y="160" width="100" height="40" as="geometry" />
        </mxCell>
        <mxCell id="xLMiuTTUpVqssLKdSycB-27" style="edgeStyle=orthogonalEdgeStyle;shape=link;rounded=0;orthogonalLoop=1;jettySize=auto;html=1;exitX=1;exitY=0.5;exitDx=0;exitDy=0;entryX=0;entryY=0.5;entryDx=0;entryDy=0;" edge="1" parent="1" source="xLMiuTTUpVqssLKdSycB-7" target="xLMiuTTUpVqssLKdSycB-6">
          <mxGeometry relative="1" as="geometry" />
        </mxCell>
        <mxCell id="xLMiuTTUpVqssLKdSycB-62" style="edgeStyle=orthogonalEdgeStyle;shape=link;rounded=0;orthogonalLoop=1;jettySize=auto;html=1;exitX=0;exitY=0.25;exitDx=0;exitDy=0;entryX=1;entryY=0.5;entryDx=0;entryDy=0;" edge="1" parent="1" source="xLMiuTTUpVqssLKdSycB-7" target="xLMiuTTUpVqssLKdSycB-61">
          <mxGeometry relative="1" as="geometry" />
        </mxCell>
        <mxCell id="xLMiuTTUpVqssLKdSycB-64" style="edgeStyle=orthogonalEdgeStyle;shape=link;rounded=0;orthogonalLoop=1;jettySize=auto;html=1;exitX=0;exitY=0.5;exitDx=0;exitDy=0;entryX=1;entryY=0.5;entryDx=0;entryDy=0;" edge="1" parent="1" source="xLMiuTTUpVqssLKdSycB-7" target="xLMiuTTUpVqssLKdSycB-63">
          <mxGeometry relative="1" as="geometry" />
        </mxCell>
        <mxCell id="xLMiuTTUpVqssLKdSycB-66" style="edgeStyle=orthogonalEdgeStyle;shape=link;rounded=0;orthogonalLoop=1;jettySize=auto;html=1;exitX=0;exitY=0.75;exitDx=0;exitDy=0;entryX=1;entryY=0.5;entryDx=0;entryDy=0;" edge="1" parent="1" source="xLMiuTTUpVqssLKdSycB-7" target="xLMiuTTUpVqssLKdSycB-65">
          <mxGeometry relative="1" as="geometry" />
        </mxCell>
        <mxCell id="xLMiuTTUpVqssLKdSycB-68" style="edgeStyle=orthogonalEdgeStyle;shape=link;rounded=0;orthogonalLoop=1;jettySize=auto;html=1;exitX=0.25;exitY=1;exitDx=0;exitDy=0;entryX=0.5;entryY=0;entryDx=0;entryDy=0;" edge="1" parent="1" source="xLMiuTTUpVqssLKdSycB-7" target="xLMiuTTUpVqssLKdSycB-67">
          <mxGeometry relative="1" as="geometry" />
        </mxCell>
        <mxCell id="xLMiuTTUpVqssLKdSycB-7" value="Блюдо" style="whiteSpace=wrap;html=1;align=center;" vertex="1" parent="1">
          <mxGeometry x="-40" y="150" width="100" height="40" as="geometry" />
        </mxCell>
        <mxCell id="xLMiuTTUpVqssLKdSycB-28" style="edgeStyle=orthogonalEdgeStyle;shape=link;rounded=0;orthogonalLoop=1;jettySize=auto;html=1;exitX=0.5;exitY=1;exitDx=0;exitDy=0;entryX=0.5;entryY=0;entryDx=0;entryDy=0;" edge="1" parent="1" source="xLMiuTTUpVqssLKdSycB-8" target="xLMiuTTUpVqssLKdSycB-7">
          <mxGeometry relative="1" as="geometry" />
        </mxCell>
        <mxCell id="xLMiuTTUpVqssLKdSycB-70" style="edgeStyle=orthogonalEdgeStyle;shape=link;rounded=0;orthogonalLoop=1;jettySize=auto;html=1;exitX=1;exitY=0;exitDx=0;exitDy=0;entryX=0;entryY=1;entryDx=0;entryDy=0;" edge="1" parent="1" source="xLMiuTTUpVqssLKdSycB-8" target="xLMiuTTUpVqssLKdSycB-69">
          <mxGeometry relative="1" as="geometry" />
        </mxCell>
        <mxCell id="xLMiuTTUpVqssLKdSycB-72" style="edgeStyle=orthogonalEdgeStyle;shape=link;rounded=0;orthogonalLoop=1;jettySize=auto;html=1;exitX=1;exitY=1;exitDx=0;exitDy=0;entryX=0;entryY=0.5;entryDx=0;entryDy=0;" edge="1" parent="1" source="xLMiuTTUpVqssLKdSycB-8" target="xLMiuTTUpVqssLKdSycB-71">
          <mxGeometry relative="1" as="geometry" />
        </mxCell>
        <mxCell id="xLMiuTTUpVqssLKdSycB-74" style="edgeStyle=orthogonalEdgeStyle;shape=link;rounded=0;orthogonalLoop=1;jettySize=auto;html=1;exitX=0;exitY=0;exitDx=0;exitDy=0;entryX=1;entryY=0.5;entryDx=0;entryDy=0;" edge="1" parent="1" source="xLMiuTTUpVqssLKdSycB-8" target="xLMiuTTUpVqssLKdSycB-73">
          <mxGeometry relative="1" as="geometry" />
        </mxCell>
        <mxCell id="xLMiuTTUpVqssLKdSycB-8" value="Состав Блюда" style="shape=rhombus;perimeter=rhombusPerimeter;whiteSpace=wrap;html=1;align=center;" vertex="1" parent="1">
          <mxGeometry x="-60" width="120" height="60" as="geometry" />
        </mxCell>
        <mxCell id="xLMiuTTUpVqssLKdSycB-29" style="edgeStyle=orthogonalEdgeStyle;shape=link;rounded=0;orthogonalLoop=1;jettySize=auto;html=1;exitX=0.5;exitY=1;exitDx=0;exitDy=0;entryX=0.5;entryY=0;entryDx=0;entryDy=0;" edge="1" parent="1" source="xLMiuTTUpVqssLKdSycB-9" target="xLMiuTTUpVqssLKdSycB-8">
          <mxGeometry relative="1" as="geometry" />
        </mxCell>
        <mxCell id="xLMiuTTUpVqssLKdSycB-78" style="edgeStyle=orthogonalEdgeStyle;shape=link;rounded=0;orthogonalLoop=1;jettySize=auto;html=1;exitX=0.75;exitY=0;exitDx=0;exitDy=0;entryX=0;entryY=0.5;entryDx=0;entryDy=0;" edge="1" parent="1" source="xLMiuTTUpVqssLKdSycB-9" target="xLMiuTTUpVqssLKdSycB-77">
          <mxGeometry relative="1" as="geometry" />
        </mxCell>
        <mxCell id="xLMiuTTUpVqssLKdSycB-80" style="edgeStyle=orthogonalEdgeStyle;shape=link;rounded=0;orthogonalLoop=1;jettySize=auto;html=1;exitX=0.25;exitY=0;exitDx=0;exitDy=0;entryX=1;entryY=0.5;entryDx=0;entryDy=0;" edge="1" parent="1" source="xLMiuTTUpVqssLKdSycB-9" target="xLMiuTTUpVqssLKdSycB-79">
          <mxGeometry relative="1" as="geometry" />
        </mxCell>
        <mxCell id="xLMiuTTUpVqssLKdSycB-82" style="edgeStyle=orthogonalEdgeStyle;shape=link;rounded=0;orthogonalLoop=1;jettySize=auto;html=1;exitX=0;exitY=0.25;exitDx=0;exitDy=0;entryX=1;entryY=0.5;entryDx=0;entryDy=0;" edge="1" parent="1" source="xLMiuTTUpVqssLKdSycB-9" target="xLMiuTTUpVqssLKdSycB-81">
          <mxGeometry relative="1" as="geometry" />
        </mxCell>
        <mxCell id="xLMiuTTUpVqssLKdSycB-9" value="Продукт" style="whiteSpace=wrap;html=1;align=center;" vertex="1" parent="1">
          <mxGeometry x="-60" y="-210" width="100" height="40" as="geometry" />
        </mxCell>
        <mxCell id="xLMiuTTUpVqssLKdSycB-30" style="edgeStyle=orthogonalEdgeStyle;shape=link;rounded=0;orthogonalLoop=1;jettySize=auto;html=1;exitX=0;exitY=0.5;exitDx=0;exitDy=0;entryX=1;entryY=0.5;entryDx=0;entryDy=0;" edge="1" parent="1" source="xLMiuTTUpVqssLKdSycB-10" target="xLMiuTTUpVqssLKdSycB-9">
          <mxGeometry relative="1" as="geometry" />
        </mxCell>
        <mxCell id="xLMiuTTUpVqssLKdSycB-89" style="edgeStyle=orthogonalEdgeStyle;shape=link;rounded=0;orthogonalLoop=1;jettySize=auto;html=1;exitX=0;exitY=1;exitDx=0;exitDy=0;entryX=0.5;entryY=0;entryDx=0;entryDy=0;" edge="1" parent="1" source="xLMiuTTUpVqssLKdSycB-10" target="xLMiuTTUpVqssLKdSycB-87">
          <mxGeometry relative="1" as="geometry" />
        </mxCell>
        <mxCell id="xLMiuTTUpVqssLKdSycB-90" style="edgeStyle=orthogonalEdgeStyle;shape=link;rounded=0;orthogonalLoop=1;jettySize=auto;html=1;exitX=1;exitY=1;exitDx=0;exitDy=0;entryX=0.5;entryY=0;entryDx=0;entryDy=0;" edge="1" parent="1" source="xLMiuTTUpVqssLKdSycB-10" target="xLMiuTTUpVqssLKdSycB-88">
          <mxGeometry relative="1" as="geometry" />
        </mxCell>
        <mxCell id="xLMiuTTUpVqssLKdSycB-10" value="Закупка Товара" style="shape=rhombus;perimeter=rhombusPerimeter;whiteSpace=wrap;html=1;align=center;" vertex="1" parent="1">
          <mxGeometry x="270" y="-290" width="120" height="60" as="geometry" />
        </mxCell>
        <mxCell id="xLMiuTTUpVqssLKdSycB-31" style="edgeStyle=orthogonalEdgeStyle;shape=link;rounded=0;orthogonalLoop=1;jettySize=auto;html=1;exitX=0;exitY=0.5;exitDx=0;exitDy=0;entryX=1;entryY=0.5;entryDx=0;entryDy=0;" edge="1" parent="1" source="xLMiuTTUpVqssLKdSycB-11" target="xLMiuTTUpVqssLKdSycB-10">
          <mxGeometry relative="1" as="geometry" />
        </mxCell>
        <mxCell id="xLMiuTTUpVqssLKdSycB-102" style="edgeStyle=orthogonalEdgeStyle;shape=link;rounded=0;orthogonalLoop=1;jettySize=auto;html=1;exitX=0.25;exitY=0;exitDx=0;exitDy=0;entryX=0.5;entryY=1;entryDx=0;entryDy=0;" edge="1" parent="1" source="xLMiuTTUpVqssLKdSycB-11" target="xLMiuTTUpVqssLKdSycB-101">
          <mxGeometry relative="1" as="geometry" />
        </mxCell>
        <mxCell id="xLMiuTTUpVqssLKdSycB-104" style="edgeStyle=orthogonalEdgeStyle;shape=link;rounded=0;orthogonalLoop=1;jettySize=auto;html=1;exitX=0.75;exitY=0;exitDx=0;exitDy=0;entryX=0.5;entryY=1;entryDx=0;entryDy=0;" edge="1" parent="1" source="xLMiuTTUpVqssLKdSycB-11" target="xLMiuTTUpVqssLKdSycB-103">
          <mxGeometry relative="1" as="geometry" />
        </mxCell>
        <mxCell id="xLMiuTTUpVqssLKdSycB-11" value="Поставщик" style="whiteSpace=wrap;html=1;align=center;" vertex="1" parent="1">
          <mxGeometry x="600" y="-210" width="100" height="40" as="geometry" />
        </mxCell>
        <mxCell id="xLMiuTTUpVqssLKdSycB-20" style="edgeStyle=orthogonalEdgeStyle;shape=link;rounded=0;orthogonalLoop=1;jettySize=auto;html=1;exitX=1;exitY=0.5;exitDx=0;exitDy=0;entryX=0;entryY=0.5;entryDx=0;entryDy=0;" edge="1" parent="1" source="xLMiuTTUpVqssLKdSycB-12" target="xLMiuTTUpVqssLKdSycB-5">
          <mxGeometry relative="1" as="geometry" />
        </mxCell>
        <mxCell id="xLMiuTTUpVqssLKdSycB-121" style="edgeStyle=orthogonalEdgeStyle;shape=link;rounded=0;orthogonalLoop=1;jettySize=auto;html=1;exitX=0.25;exitY=0;exitDx=0;exitDy=0;entryX=0.5;entryY=1;entryDx=0;entryDy=0;" edge="1" parent="1" source="xLMiuTTUpVqssLKdSycB-12" target="xLMiuTTUpVqssLKdSycB-120">
          <mxGeometry relative="1" as="geometry" />
        </mxCell>
        <mxCell id="xLMiuTTUpVqssLKdSycB-127" style="edgeStyle=orthogonalEdgeStyle;shape=link;rounded=0;orthogonalLoop=1;jettySize=auto;html=1;exitX=0.25;exitY=1;exitDx=0;exitDy=0;entryX=1;entryY=0.5;entryDx=0;entryDy=0;" edge="1" parent="1" source="xLMiuTTUpVqssLKdSycB-12" target="xLMiuTTUpVqssLKdSycB-122">
          <mxGeometry relative="1" as="geometry" />
        </mxCell>
        <mxCell id="xLMiuTTUpVqssLKdSycB-128" style="edgeStyle=orthogonalEdgeStyle;shape=link;rounded=0;orthogonalLoop=1;jettySize=auto;html=1;exitX=0.5;exitY=1;exitDx=0;exitDy=0;entryX=1;entryY=0;entryDx=0;entryDy=0;" edge="1" parent="1" source="xLMiuTTUpVqssLKdSycB-12" target="xLMiuTTUpVqssLKdSycB-123">
          <mxGeometry relative="1" as="geometry" />
        </mxCell>
        <mxCell id="xLMiuTTUpVqssLKdSycB-129" style="edgeStyle=orthogonalEdgeStyle;shape=link;rounded=0;orthogonalLoop=1;jettySize=auto;html=1;exitX=0.75;exitY=1;exitDx=0;exitDy=0;entryX=0.5;entryY=0;entryDx=0;entryDy=0;" edge="1" parent="1" source="xLMiuTTUpVqssLKdSycB-12" target="xLMiuTTUpVqssLKdSycB-124">
          <mxGeometry relative="1" as="geometry" />
        </mxCell>
        <mxCell id="xLMiuTTUpVqssLKdSycB-130" style="edgeStyle=orthogonalEdgeStyle;shape=link;rounded=0;orthogonalLoop=1;jettySize=auto;html=1;exitX=1;exitY=1;exitDx=0;exitDy=0;entryX=0;entryY=0;entryDx=0;entryDy=0;" edge="1" parent="1" source="xLMiuTTUpVqssLKdSycB-12" target="xLMiuTTUpVqssLKdSycB-126">
          <mxGeometry relative="1" as="geometry" />
        </mxCell>
        <mxCell id="xLMiuTTUpVqssLKdSycB-12" value="Заказ" style="whiteSpace=wrap;html=1;align=center;" vertex="1" parent="1">
          <mxGeometry x="240" y="350" width="100" height="40" as="geometry" />
        </mxCell>
        <mxCell id="xLMiuTTUpVqssLKdSycB-19" style="edgeStyle=orthogonalEdgeStyle;shape=link;rounded=0;orthogonalLoop=1;jettySize=auto;html=1;exitX=1;exitY=0.5;exitDx=0;exitDy=0;entryX=0;entryY=0.5;entryDx=0;entryDy=0;" edge="1" parent="1" source="xLMiuTTUpVqssLKdSycB-13" target="xLMiuTTUpVqssLKdSycB-12">
          <mxGeometry relative="1" as="geometry" />
        </mxCell>
        <mxCell id="xLMiuTTUpVqssLKdSycB-132" style="edgeStyle=orthogonalEdgeStyle;shape=link;rounded=0;orthogonalLoop=1;jettySize=auto;html=1;exitX=0.75;exitY=0;exitDx=0;exitDy=0;entryX=0.5;entryY=1;entryDx=0;entryDy=0;" edge="1" parent="1" source="xLMiuTTUpVqssLKdSycB-13" target="xLMiuTTUpVqssLKdSycB-131">
          <mxGeometry relative="1" as="geometry" />
        </mxCell>
        <mxCell id="xLMiuTTUpVqssLKdSycB-134" style="edgeStyle=orthogonalEdgeStyle;shape=link;rounded=0;orthogonalLoop=1;jettySize=auto;html=1;exitX=0.5;exitY=0;exitDx=0;exitDy=0;entryX=0.5;entryY=1;entryDx=0;entryDy=0;" edge="1" parent="1" source="xLMiuTTUpVqssLKdSycB-13" target="xLMiuTTUpVqssLKdSycB-133">
          <mxGeometry relative="1" as="geometry" />
        </mxCell>
        <mxCell id="xLMiuTTUpVqssLKdSycB-136" style="edgeStyle=orthogonalEdgeStyle;shape=link;rounded=0;orthogonalLoop=1;jettySize=auto;html=1;exitX=0.75;exitY=1;exitDx=0;exitDy=0;entryX=0.5;entryY=0;entryDx=0;entryDy=0;" edge="1" parent="1" source="xLMiuTTUpVqssLKdSycB-13" target="xLMiuTTUpVqssLKdSycB-135">
          <mxGeometry relative="1" as="geometry" />
        </mxCell>
        <mxCell id="xLMiuTTUpVqssLKdSycB-13" value="Стол" style="whiteSpace=wrap;html=1;align=center;" vertex="1" parent="1">
          <mxGeometry x="30" y="320" width="100" height="40" as="geometry" />
        </mxCell>
        <mxCell id="xLMiuTTUpVqssLKdSycB-18" style="edgeStyle=orthogonalEdgeStyle;shape=link;rounded=0;orthogonalLoop=1;jettySize=auto;html=1;exitX=1;exitY=0.5;exitDx=0;exitDy=0;entryX=0;entryY=0.5;entryDx=0;entryDy=0;" edge="1" parent="1" source="xLMiuTTUpVqssLKdSycB-14" target="xLMiuTTUpVqssLKdSycB-13">
          <mxGeometry relative="1" as="geometry" />
        </mxCell>
        <mxCell id="xLMiuTTUpVqssLKdSycB-140" style="edgeStyle=orthogonalEdgeStyle;shape=link;rounded=0;orthogonalLoop=1;jettySize=auto;html=1;exitX=0;exitY=0;exitDx=0;exitDy=0;entryX=1;entryY=0.5;entryDx=0;entryDy=0;" edge="1" parent="1" source="xLMiuTTUpVqssLKdSycB-14" target="xLMiuTTUpVqssLKdSycB-137">
          <mxGeometry relative="1" as="geometry" />
        </mxCell>
        <mxCell id="xLMiuTTUpVqssLKdSycB-141" style="edgeStyle=orthogonalEdgeStyle;shape=link;rounded=0;orthogonalLoop=1;jettySize=auto;html=1;exitX=0;exitY=0.5;exitDx=0;exitDy=0;entryX=1;entryY=0.5;entryDx=0;entryDy=0;" edge="1" parent="1" source="xLMiuTTUpVqssLKdSycB-14" target="xLMiuTTUpVqssLKdSycB-138">
          <mxGeometry relative="1" as="geometry" />
        </mxCell>
        <mxCell id="xLMiuTTUpVqssLKdSycB-142" style="edgeStyle=orthogonalEdgeStyle;shape=link;rounded=0;orthogonalLoop=1;jettySize=auto;html=1;exitX=0;exitY=1;exitDx=0;exitDy=0;entryX=1;entryY=0.5;entryDx=0;entryDy=0;" edge="1" parent="1" source="xLMiuTTUpVqssLKdSycB-14" target="xLMiuTTUpVqssLKdSycB-139">
          <mxGeometry relative="1" as="geometry" />
        </mxCell>
        <mxCell id="xLMiuTTUpVqssLKdSycB-14" value="Бронирование Стола" style="shape=rhombus;perimeter=rhombusPerimeter;whiteSpace=wrap;html=1;align=center;" vertex="1" parent="1">
          <mxGeometry x="-220" y="305" width="150" height="70" as="geometry" />
        </mxCell>
        <mxCell id="xLMiuTTUpVqssLKdSycB-16" style="edgeStyle=orthogonalEdgeStyle;shape=link;rounded=0;orthogonalLoop=1;jettySize=auto;html=1;exitX=1;exitY=0.5;exitDx=0;exitDy=0;entryX=0.25;entryY=1;entryDx=0;entryDy=0;" edge="1" parent="1" source="xLMiuTTUpVqssLKdSycB-15" target="xLMiuTTUpVqssLKdSycB-13">
          <mxGeometry relative="1" as="geometry" />
        </mxCell>
        <mxCell id="xLMiuTTUpVqssLKdSycB-17" style="edgeStyle=orthogonalEdgeStyle;shape=link;rounded=0;orthogonalLoop=1;jettySize=auto;html=1;exitX=0.5;exitY=0;exitDx=0;exitDy=0;entryX=0.5;entryY=1;entryDx=0;entryDy=0;" edge="1" parent="1" source="xLMiuTTUpVqssLKdSycB-15" target="xLMiuTTUpVqssLKdSycB-14">
          <mxGeometry relative="1" as="geometry" />
        </mxCell>
        <mxCell id="xLMiuTTUpVqssLKdSycB-144" style="edgeStyle=orthogonalEdgeStyle;shape=link;rounded=0;orthogonalLoop=1;jettySize=auto;html=1;exitX=0;exitY=0.5;exitDx=0;exitDy=0;entryX=1;entryY=0.5;entryDx=0;entryDy=0;" edge="1" parent="1" source="xLMiuTTUpVqssLKdSycB-15" target="xLMiuTTUpVqssLKdSycB-143">
          <mxGeometry relative="1" as="geometry" />
        </mxCell>
        <mxCell id="xLMiuTTUpVqssLKdSycB-146" style="edgeStyle=orthogonalEdgeStyle;shape=link;rounded=0;orthogonalLoop=1;jettySize=auto;html=1;exitX=0;exitY=1;exitDx=0;exitDy=0;entryX=0.5;entryY=0;entryDx=0;entryDy=0;" edge="1" parent="1" source="xLMiuTTUpVqssLKdSycB-15" target="xLMiuTTUpVqssLKdSycB-145">
          <mxGeometry relative="1" as="geometry" />
        </mxCell>
        <mxCell id="xLMiuTTUpVqssLKdSycB-148" style="edgeStyle=orthogonalEdgeStyle;shape=link;rounded=0;orthogonalLoop=1;jettySize=auto;html=1;exitX=0.25;exitY=1;exitDx=0;exitDy=0;entryX=0.5;entryY=0;entryDx=0;entryDy=0;" edge="1" parent="1" source="xLMiuTTUpVqssLKdSycB-15" target="xLMiuTTUpVqssLKdSycB-147">
          <mxGeometry relative="1" as="geometry" />
        </mxCell>
        <mxCell id="xLMiuTTUpVqssLKdSycB-150" style="edgeStyle=orthogonalEdgeStyle;shape=link;rounded=0;orthogonalLoop=1;jettySize=auto;html=1;exitX=0.75;exitY=1;exitDx=0;exitDy=0;entryX=0;entryY=0.5;entryDx=0;entryDy=0;" edge="1" parent="1" source="xLMiuTTUpVqssLKdSycB-15" target="xLMiuTTUpVqssLKdSycB-149">
          <mxGeometry relative="1" as="geometry" />
        </mxCell>
        <mxCell id="xLMiuTTUpVqssLKdSycB-15" value="Клиент" style="whiteSpace=wrap;html=1;align=center;" vertex="1" parent="1">
          <mxGeometry x="-195" y="480" width="100" height="40" as="geometry" />
        </mxCell>
        <mxCell id="xLMiuTTUpVqssLKdSycB-33" value="&lt;span style=&quot;border-bottom: 1px dotted&quot;&gt;&lt;u&gt;Код Смены&lt;/u&gt;&lt;/span&gt;" style="ellipse;whiteSpace=wrap;html=1;align=center;" vertex="1" parent="1">
          <mxGeometry x="770" y="-180" width="100" height="40" as="geometry" />
        </mxCell>
        <mxCell id="xLMiuTTUpVqssLKdSycB-35" value="&lt;span style=&quot;border-bottom: 1px dotted&quot;&gt;Табельный Номер&lt;/span&gt;" style="ellipse;whiteSpace=wrap;html=1;align=center;" vertex="1" parent="1">
          <mxGeometry x="890" y="-150" width="100" height="40" as="geometry" />
        </mxCell>
        <mxCell id="xLMiuTTUpVqssLKdSycB-36" value="Дата Начала" style="ellipse;whiteSpace=wrap;html=1;align=center;" vertex="1" parent="1">
          <mxGeometry x="940" y="-70" width="100" height="40" as="geometry" />
        </mxCell>
        <mxCell id="xLMiuTTUpVqssLKdSycB-37" value="Дата Конца" style="ellipse;whiteSpace=wrap;html=1;align=center;" vertex="1" parent="1">
          <mxGeometry x="950" width="100" height="40" as="geometry" />
        </mxCell>
        <mxCell id="xLMiuTTUpVqssLKdSycB-42" value="&lt;span style=&quot;border-bottom: 1px dotted&quot;&gt;&lt;u&gt;Табельный Номер&lt;/u&gt;&lt;/span&gt;" style="ellipse;whiteSpace=wrap;html=1;align=center;" vertex="1" parent="1">
          <mxGeometry x="750" y="50" width="100" height="40" as="geometry" />
        </mxCell>
        <mxCell id="xLMiuTTUpVqssLKdSycB-50" style="edgeStyle=orthogonalEdgeStyle;shape=link;rounded=0;orthogonalLoop=1;jettySize=auto;html=1;exitX=0;exitY=0.5;exitDx=0;exitDy=0;entryX=1;entryY=0.25;entryDx=0;entryDy=0;" edge="1" parent="1" source="xLMiuTTUpVqssLKdSycB-44" target="xLMiuTTUpVqssLKdSycB-1">
          <mxGeometry relative="1" as="geometry" />
        </mxCell>
        <mxCell id="xLMiuTTUpVqssLKdSycB-44" value="Категория" style="ellipse;whiteSpace=wrap;html=1;align=center;" vertex="1" parent="1">
          <mxGeometry x="890" y="80" width="100" height="40" as="geometry" />
        </mxCell>
        <mxCell id="xLMiuTTUpVqssLKdSycB-51" style="edgeStyle=orthogonalEdgeStyle;shape=link;rounded=0;orthogonalLoop=1;jettySize=auto;html=1;exitX=0;exitY=0.5;exitDx=0;exitDy=0;entryX=1;entryY=0.5;entryDx=0;entryDy=0;" edge="1" parent="1" source="xLMiuTTUpVqssLKdSycB-45" target="xLMiuTTUpVqssLKdSycB-1">
          <mxGeometry relative="1" as="geometry" />
        </mxCell>
        <mxCell id="xLMiuTTUpVqssLKdSycB-45" value="ФИО" style="ellipse;whiteSpace=wrap;html=1;align=center;" vertex="1" parent="1">
          <mxGeometry x="900" y="160" width="100" height="40" as="geometry" />
        </mxCell>
        <mxCell id="xLMiuTTUpVqssLKdSycB-49" style="edgeStyle=orthogonalEdgeStyle;shape=link;rounded=0;orthogonalLoop=1;jettySize=auto;html=1;exitX=0;exitY=0.5;exitDx=0;exitDy=0;entryX=1;entryY=0.75;entryDx=0;entryDy=0;" edge="1" parent="1" source="xLMiuTTUpVqssLKdSycB-46" target="xLMiuTTUpVqssLKdSycB-1">
          <mxGeometry relative="1" as="geometry" />
        </mxCell>
        <mxCell id="xLMiuTTUpVqssLKdSycB-46" value="Паспортные Данные" style="ellipse;whiteSpace=wrap;html=1;align=center;" vertex="1" parent="1">
          <mxGeometry x="800" y="180" width="100" height="40" as="geometry" />
        </mxCell>
        <mxCell id="xLMiuTTUpVqssLKdSycB-47" value="Должность" style="ellipse;whiteSpace=wrap;html=1;align=center;" vertex="1" parent="1">
          <mxGeometry x="690" y="190" width="100" height="40" as="geometry" />
        </mxCell>
        <mxCell id="xLMiuTTUpVqssLKdSycB-52" value="&lt;span style=&quot;border-bottom: 1px dotted&quot;&gt;&lt;u&gt;Табельный Номер&lt;/u&gt;&lt;/span&gt;" style="ellipse;whiteSpace=wrap;html=1;align=center;" vertex="1" parent="1">
          <mxGeometry x="350" y="-30" width="100" height="40" as="geometry" />
        </mxCell>
        <mxCell id="xLMiuTTUpVqssLKdSycB-54" value="&lt;u&gt;Код Списка&lt;/u&gt;" style="ellipse;whiteSpace=wrap;html=1;align=center;" vertex="1" parent="1">
          <mxGeometry x="500" y="-30" width="100" height="40" as="geometry" />
        </mxCell>
        <mxCell id="xLMiuTTUpVqssLKdSycB-56" value="&lt;span style=&quot;border-bottom: 1px dotted&quot;&gt;&lt;u&gt;Код Списка&lt;/u&gt;&lt;/span&gt;" style="ellipse;whiteSpace=wrap;html=1;align=center;" vertex="1" parent="1">
          <mxGeometry x="400" y="130" width="100" height="40" as="geometry" />
        </mxCell>
        <mxCell id="xLMiuTTUpVqssLKdSycB-60" style="edgeStyle=orthogonalEdgeStyle;shape=link;rounded=0;orthogonalLoop=1;jettySize=auto;html=1;exitX=0.5;exitY=0;exitDx=0;exitDy=0;entryX=0.75;entryY=1;entryDx=0;entryDy=0;" edge="1" parent="1" source="xLMiuTTUpVqssLKdSycB-59" target="xLMiuTTUpVqssLKdSycB-6">
          <mxGeometry relative="1" as="geometry" />
        </mxCell>
        <mxCell id="xLMiuTTUpVqssLKdSycB-59" value="&lt;span style=&quot;border-bottom: 1px dotted&quot;&gt;Код Блюда&lt;/span&gt;" style="ellipse;whiteSpace=wrap;html=1;align=center;" vertex="1" parent="1">
          <mxGeometry x="400" y="210" width="100" height="40" as="geometry" />
        </mxCell>
        <mxCell id="xLMiuTTUpVqssLKdSycB-61" value="&lt;span style=&quot;border-bottom: 1px dotted&quot;&gt;&lt;u&gt;Код Блюда&lt;/u&gt;&lt;/span&gt;" style="ellipse;whiteSpace=wrap;html=1;align=center;" vertex="1" parent="1">
          <mxGeometry x="-250" y="80" width="100" height="40" as="geometry" />
        </mxCell>
        <mxCell id="xLMiuTTUpVqssLKdSycB-63" value="Имя Блюда" style="ellipse;whiteSpace=wrap;html=1;align=center;" vertex="1" parent="1">
          <mxGeometry x="-270" y="130" width="100" height="40" as="geometry" />
        </mxCell>
        <mxCell id="xLMiuTTUpVqssLKdSycB-65" value="Цена Блюда" style="ellipse;whiteSpace=wrap;html=1;align=center;" vertex="1" parent="1">
          <mxGeometry x="-260" y="180" width="100" height="40" as="geometry" />
        </mxCell>
        <mxCell id="xLMiuTTUpVqssLKdSycB-67" value="Рецепт" style="ellipse;whiteSpace=wrap;html=1;align=center;" vertex="1" parent="1">
          <mxGeometry x="-195" y="230" width="100" height="40" as="geometry" />
        </mxCell>
        <mxCell id="xLMiuTTUpVqssLKdSycB-69" value="&lt;span style=&quot;border-bottom: 1px dotted&quot;&gt;&lt;u&gt;Код Блюда&lt;/u&gt;&lt;/span&gt;" style="ellipse;whiteSpace=wrap;html=1;align=center;" vertex="1" parent="1">
          <mxGeometry x="70" y="-40" width="100" height="40" as="geometry" />
        </mxCell>
        <mxCell id="xLMiuTTUpVqssLKdSycB-71" value="&lt;span style=&quot;border-bottom: 1px dotted&quot;&gt;&lt;u&gt;Код Продукта&lt;/u&gt;&lt;/span&gt;" style="ellipse;whiteSpace=wrap;html=1;align=center;" vertex="1" parent="1">
          <mxGeometry x="80" y="50" width="100" height="40" as="geometry" />
        </mxCell>
        <mxCell id="xLMiuTTUpVqssLKdSycB-73" value="Вес Блюда" style="ellipse;whiteSpace=wrap;html=1;align=center;" vertex="1" parent="1">
          <mxGeometry x="-180" y="-30" width="100" height="40" as="geometry" />
        </mxCell>
        <mxCell id="xLMiuTTUpVqssLKdSycB-76" style="edgeStyle=orthogonalEdgeStyle;shape=link;rounded=0;orthogonalLoop=1;jettySize=auto;html=1;exitX=1;exitY=0.5;exitDx=0;exitDy=0;entryX=0;entryY=1;entryDx=0;entryDy=0;" edge="1" parent="1" source="xLMiuTTUpVqssLKdSycB-75" target="xLMiuTTUpVqssLKdSycB-8">
          <mxGeometry relative="1" as="geometry" />
        </mxCell>
        <mxCell id="xLMiuTTUpVqssLKdSycB-75" value="Общая Калорийность" style="ellipse;whiteSpace=wrap;html=1;align=center;" vertex="1" parent="1">
          <mxGeometry x="-190" y="20" width="100" height="40" as="geometry" />
        </mxCell>
        <mxCell id="xLMiuTTUpVqssLKdSycB-77" value="&lt;span style=&quot;border-bottom: 1px dotted&quot;&gt;&lt;u&gt;Код Продукта&lt;/u&gt;&lt;/span&gt;" style="ellipse;whiteSpace=wrap;html=1;align=center;" vertex="1" parent="1">
          <mxGeometry x="20" y="-340" width="100" height="40" as="geometry" />
        </mxCell>
        <mxCell id="xLMiuTTUpVqssLKdSycB-79" value="Имя Продукта" style="ellipse;whiteSpace=wrap;html=1;align=center;" vertex="1" parent="1">
          <mxGeometry x="-150" y="-300" width="100" height="40" as="geometry" />
        </mxCell>
        <mxCell id="xLMiuTTUpVqssLKdSycB-81" value="Калорийность" style="ellipse;whiteSpace=wrap;html=1;align=center;" vertex="1" parent="1">
          <mxGeometry x="-210" y="-250" width="100" height="40" as="geometry" />
        </mxCell>
        <mxCell id="xLMiuTTUpVqssLKdSycB-84" value="" style="edgeStyle=orthogonalEdgeStyle;shape=link;rounded=0;orthogonalLoop=1;jettySize=auto;html=1;" edge="1" parent="1" source="xLMiuTTUpVqssLKdSycB-83" target="xLMiuTTUpVqssLKdSycB-9">
          <mxGeometry relative="1" as="geometry" />
        </mxCell>
        <mxCell id="xLMiuTTUpVqssLKdSycB-83" value="Мин. Запас" style="ellipse;whiteSpace=wrap;html=1;align=center;" vertex="1" parent="1">
          <mxGeometry x="-210" y="-200" width="100" height="40" as="geometry" />
        </mxCell>
        <mxCell id="xLMiuTTUpVqssLKdSycB-86" style="edgeStyle=orthogonalEdgeStyle;shape=link;rounded=0;orthogonalLoop=1;jettySize=auto;html=1;exitX=1;exitY=0.5;exitDx=0;exitDy=0;entryX=0.25;entryY=1;entryDx=0;entryDy=0;" edge="1" parent="1" source="xLMiuTTUpVqssLKdSycB-85" target="xLMiuTTUpVqssLKdSycB-9">
          <mxGeometry relative="1" as="geometry" />
        </mxCell>
        <mxCell id="xLMiuTTUpVqssLKdSycB-85" value="Тип" style="ellipse;whiteSpace=wrap;html=1;align=center;" vertex="1" parent="1">
          <mxGeometry x="-190" y="-150" width="100" height="40" as="geometry" />
        </mxCell>
        <mxCell id="xLMiuTTUpVqssLKdSycB-87" value="&lt;span style=&quot;border-bottom: 1px dotted&quot;&gt;&lt;u&gt;Код Продукта&lt;/u&gt;&lt;/span&gt;" style="ellipse;whiteSpace=wrap;html=1;align=center;" vertex="1" parent="1">
          <mxGeometry x="220" y="-160" width="100" height="40" as="geometry" />
        </mxCell>
        <mxCell id="xLMiuTTUpVqssLKdSycB-88" value="&lt;span style=&quot;border-bottom: 1px dotted&quot;&gt;&lt;u&gt;Код Поставщика&lt;/u&gt;&lt;/span&gt;" style="ellipse;whiteSpace=wrap;html=1;align=center;" vertex="1" parent="1">
          <mxGeometry x="350" y="-160" width="100" height="40" as="geometry" />
        </mxCell>
        <mxCell id="xLMiuTTUpVqssLKdSycB-98" style="edgeStyle=orthogonalEdgeStyle;shape=link;rounded=0;orthogonalLoop=1;jettySize=auto;html=1;exitX=0.5;exitY=1;exitDx=0;exitDy=0;entryX=0.5;entryY=0;entryDx=0;entryDy=0;" edge="1" parent="1" source="xLMiuTTUpVqssLKdSycB-91" target="xLMiuTTUpVqssLKdSycB-10">
          <mxGeometry relative="1" as="geometry" />
        </mxCell>
        <mxCell id="xLMiuTTUpVqssLKdSycB-91" value="Дата Закупки" style="ellipse;whiteSpace=wrap;html=1;align=center;" vertex="1" parent="1">
          <mxGeometry x="250" y="-480" width="100" height="40" as="geometry" />
        </mxCell>
        <mxCell id="xLMiuTTUpVqssLKdSycB-100" style="edgeStyle=orthogonalEdgeStyle;shape=link;rounded=0;orthogonalLoop=1;jettySize=auto;html=1;exitX=0.5;exitY=1;exitDx=0;exitDy=0;entryX=1;entryY=0;entryDx=0;entryDy=0;" edge="1" parent="1" source="xLMiuTTUpVqssLKdSycB-92" target="xLMiuTTUpVqssLKdSycB-10">
          <mxGeometry relative="1" as="geometry" />
        </mxCell>
        <mxCell id="xLMiuTTUpVqssLKdSycB-92" value="Объём Закупки" style="ellipse;whiteSpace=wrap;html=1;align=center;" vertex="1" parent="1">
          <mxGeometry x="430" y="-400" width="100" height="40" as="geometry" />
        </mxCell>
        <mxCell id="xLMiuTTUpVqssLKdSycB-97" style="edgeStyle=orthogonalEdgeStyle;shape=link;rounded=0;orthogonalLoop=1;jettySize=auto;html=1;exitX=1;exitY=0.5;exitDx=0;exitDy=0;entryX=0;entryY=0;entryDx=0;entryDy=0;" edge="1" parent="1" source="xLMiuTTUpVqssLKdSycB-93" target="xLMiuTTUpVqssLKdSycB-10">
          <mxGeometry relative="1" as="geometry">
            <Array as="points">
              <mxPoint x="280" y="-420" />
              <mxPoint x="280" y="-275" />
            </Array>
          </mxGeometry>
        </mxCell>
        <mxCell id="xLMiuTTUpVqssLKdSycB-93" value="Цена" style="ellipse;whiteSpace=wrap;html=1;align=center;" vertex="1" parent="1">
          <mxGeometry x="150" y="-440" width="100" height="40" as="geometry" />
        </mxCell>
        <mxCell id="xLMiuTTUpVqssLKdSycB-99" style="edgeStyle=orthogonalEdgeStyle;shape=link;rounded=0;orthogonalLoop=1;jettySize=auto;html=1;exitX=0;exitY=1;exitDx=0;exitDy=0;entryX=0.5;entryY=0;entryDx=0;entryDy=0;" edge="1" parent="1" source="xLMiuTTUpVqssLKdSycB-94" target="xLMiuTTUpVqssLKdSycB-10">
          <mxGeometry relative="1" as="geometry" />
        </mxCell>
        <mxCell id="xLMiuTTUpVqssLKdSycB-94" value="Срок Годности" style="ellipse;whiteSpace=wrap;html=1;align=center;" vertex="1" parent="1">
          <mxGeometry x="364" y="-460" width="100" height="40" as="geometry" />
        </mxCell>
        <mxCell id="xLMiuTTUpVqssLKdSycB-95" value="Остаток" style="ellipse;whiteSpace=wrap;html=1;align=center;" vertex="1" parent="1">
          <mxGeometry x="140" y="-370" width="100" height="40" as="geometry" />
        </mxCell>
        <mxCell id="xLMiuTTUpVqssLKdSycB-96" style="edgeStyle=orthogonalEdgeStyle;shape=link;rounded=0;orthogonalLoop=1;jettySize=auto;html=1;exitX=0;exitY=0;exitDx=0;exitDy=0;entryX=0.958;entryY=0.795;entryDx=0;entryDy=0;entryPerimeter=0;" edge="1" parent="1" source="xLMiuTTUpVqssLKdSycB-10" target="xLMiuTTUpVqssLKdSycB-95">
          <mxGeometry relative="1" as="geometry" />
        </mxCell>
        <mxCell id="xLMiuTTUpVqssLKdSycB-101" value="Имя Организации" style="ellipse;whiteSpace=wrap;html=1;align=center;" vertex="1" parent="1">
          <mxGeometry x="570" y="-290" width="100" height="40" as="geometry" />
        </mxCell>
        <mxCell id="xLMiuTTUpVqssLKdSycB-103" value="&lt;span style=&quot;border-bottom: 1px dotted&quot;&gt;&lt;u&gt;Код Поставщика&lt;/u&gt;&lt;/span&gt;" style="ellipse;whiteSpace=wrap;html=1;align=center;" vertex="1" parent="1">
          <mxGeometry x="690" y="-290" width="100" height="40" as="geometry" />
        </mxCell>
        <mxCell id="xLMiuTTUpVqssLKdSycB-105" value="&lt;span style=&quot;border-bottom: 1px dotted&quot;&gt;&lt;u&gt;Код Кухни&lt;/u&gt;&lt;/span&gt;" style="ellipse;whiteSpace=wrap;html=1;align=center;" vertex="1" parent="1">
          <mxGeometry x="950" y="360" width="100" height="40" as="geometry" />
        </mxCell>
        <mxCell id="xLMiuTTUpVqssLKdSycB-107" value="&lt;span style=&quot;border-bottom: 1px dotted&quot;&gt;Табельный Номер&lt;/span&gt;" style="ellipse;whiteSpace=wrap;html=1;align=center;" vertex="1" parent="1">
          <mxGeometry x="970" y="420" width="100" height="40" as="geometry" />
        </mxCell>
        <mxCell id="xLMiuTTUpVqssLKdSycB-109" value="Специализация" style="ellipse;whiteSpace=wrap;html=1;align=center;" vertex="1" parent="1">
          <mxGeometry x="950" y="490" width="100" height="40" as="geometry" />
        </mxCell>
        <mxCell id="xLMiuTTUpVqssLKdSycB-111" value="&lt;span style=&quot;border-bottom: 1px dotted&quot;&gt;&lt;u&gt;Табельный Номер&lt;/u&gt;&lt;/span&gt;" style="ellipse;whiteSpace=wrap;html=1;align=center;" vertex="1" parent="1">
          <mxGeometry x="410" y="375" width="100" height="40" as="geometry" />
        </mxCell>
        <mxCell id="xLMiuTTUpVqssLKdSycB-113" value="&lt;span style=&quot;border-bottom: 1px dotted&quot;&gt;&lt;u&gt;Код Кухни&lt;/u&gt;&lt;/span&gt;" style="ellipse;whiteSpace=wrap;html=1;align=center;" vertex="1" parent="1">
          <mxGeometry x="480" y="420" width="100" height="40" as="geometry" />
        </mxCell>
        <mxCell id="xLMiuTTUpVqssLKdSycB-114" value="&lt;span style=&quot;border-bottom: 1px dotted&quot;&gt;&lt;u&gt;Код Заказа&lt;/u&gt;&lt;/span&gt;" style="ellipse;whiteSpace=wrap;html=1;align=center;" vertex="1" parent="1">
          <mxGeometry x="630" y="350" width="100" height="40" as="geometry" />
        </mxCell>
        <mxCell id="xLMiuTTUpVqssLKdSycB-118" value="Чаевые" style="ellipse;whiteSpace=wrap;html=1;align=center;" vertex="1" parent="1">
          <mxGeometry x="600" y="440" width="100" height="40" as="geometry" />
        </mxCell>
        <mxCell id="xLMiuTTUpVqssLKdSycB-120" value="&lt;span style=&quot;border-bottom: 1px dotted&quot;&gt;&lt;u&gt;Код Заказа&lt;/u&gt;&lt;/span&gt;" style="ellipse;whiteSpace=wrap;html=1;align=center;" vertex="1" parent="1">
          <mxGeometry x="190" y="270" width="100" height="40" as="geometry" />
        </mxCell>
        <mxCell id="xLMiuTTUpVqssLKdSycB-122" value="Дата Заказа" style="ellipse;whiteSpace=wrap;html=1;align=center;" vertex="1" parent="1">
          <mxGeometry x="150" y="400" width="100" height="40" as="geometry" />
        </mxCell>
        <mxCell id="xLMiuTTUpVqssLKdSycB-123" value="Цена Заказа" style="ellipse;whiteSpace=wrap;html=1;align=center;" vertex="1" parent="1">
          <mxGeometry x="180" y="460" width="100" height="40" as="geometry" />
        </mxCell>
        <mxCell id="xLMiuTTUpVqssLKdSycB-124" value="&lt;u&gt;Код Списка&lt;/u&gt;" style="ellipse;whiteSpace=wrap;html=1;align=center;" vertex="1" parent="1">
          <mxGeometry x="280" y="480" width="100" height="40" as="geometry" />
        </mxCell>
        <mxCell id="xLMiuTTUpVqssLKdSycB-126" value="&lt;span style=&quot;border-bottom: 1px dotted&quot;&gt;Код Стола&lt;/span&gt;" style="ellipse;whiteSpace=wrap;html=1;align=center;" vertex="1" parent="1">
          <mxGeometry x="380" y="450" width="100" height="40" as="geometry" />
        </mxCell>
        <mxCell id="xLMiuTTUpVqssLKdSycB-131" value="&lt;span style=&quot;border-bottom: 1px dotted&quot;&gt;&lt;u&gt;Код Стола&lt;/u&gt;&lt;/span&gt;" style="ellipse;whiteSpace=wrap;html=1;align=center;" vertex="1" parent="1">
          <mxGeometry x="120" y="230" width="100" height="40" as="geometry" />
        </mxCell>
        <mxCell id="xLMiuTTUpVqssLKdSycB-133" value="Количество Мест" style="ellipse;whiteSpace=wrap;html=1;align=center;" vertex="1" parent="1">
          <mxGeometry y="230" width="110" height="40" as="geometry" />
        </mxCell>
        <mxCell id="xLMiuTTUpVqssLKdSycB-135" value="&lt;span style=&quot;border-bottom: 1px dotted&quot;&gt;Код Клиента&lt;/span&gt;" style="ellipse;whiteSpace=wrap;html=1;align=center;" vertex="1" parent="1">
          <mxGeometry x="70" y="440" width="100" height="40" as="geometry" />
        </mxCell>
        <mxCell id="xLMiuTTUpVqssLKdSycB-137" value="&lt;span style=&quot;border-bottom: 1px dotted&quot;&gt;&lt;u&gt;Код Клиента&lt;/u&gt;&lt;/span&gt;" style="ellipse;whiteSpace=wrap;html=1;align=center;" vertex="1" parent="1">
          <mxGeometry x="-320" y="265" width="100" height="40" as="geometry" />
        </mxCell>
        <mxCell id="xLMiuTTUpVqssLKdSycB-138" value="&lt;span style=&quot;border-bottom: 1px dotted&quot;&gt;&lt;u&gt;Код Стола&lt;/u&gt;&lt;/span&gt;" style="ellipse;whiteSpace=wrap;html=1;align=center;" vertex="1" parent="1">
          <mxGeometry x="-370" y="320" width="100" height="40" as="geometry" />
        </mxCell>
        <mxCell id="xLMiuTTUpVqssLKdSycB-139" value="Дата Брони" style="ellipse;whiteSpace=wrap;html=1;align=center;" vertex="1" parent="1">
          <mxGeometry x="-350" y="390" width="100" height="40" as="geometry" />
        </mxCell>
        <mxCell id="xLMiuTTUpVqssLKdSycB-143" value="&lt;span style=&quot;border-bottom: 1px dotted&quot;&gt;&lt;u&gt;Код Клиента&lt;/u&gt;&lt;/span&gt;" style="ellipse;whiteSpace=wrap;html=1;align=center;" vertex="1" parent="1">
          <mxGeometry x="-330" y="480" width="100" height="40" as="geometry" />
        </mxCell>
        <mxCell id="xLMiuTTUpVqssLKdSycB-145" value="ФИО Клиента" style="ellipse;whiteSpace=wrap;html=1;align=center;" vertex="1" parent="1">
          <mxGeometry x="-290" y="560" width="100" height="40" as="geometry" />
        </mxCell>
        <mxCell id="xLMiuTTUpVqssLKdSycB-147" value="Способ Оплаты" style="ellipse;whiteSpace=wrap;html=1;align=center;" vertex="1" parent="1">
          <mxGeometry x="-180" y="585" width="100" height="40" as="geometry" />
        </mxCell>
        <mxCell id="xLMiuTTUpVqssLKdSycB-149" value="Количество Посещений" style="ellipse;whiteSpace=wrap;html=1;align=center;" vertex="1" parent="1">
          <mxGeometry x="-60" y="540" width="100" height="40" as="geometry" />
        </mxCell>
        <mxCell id="xLMiuTTUpVqssLKdSycB-151" value="1:М" style="text;html=1;align=center;verticalAlign=middle;resizable=0;points=[];autosize=1;strokeColor=none;fillColor=none;" vertex="1" parent="1">
          <mxGeometry x="-90" y="350" width="40" height="30" as="geometry" />
        </mxCell>
        <mxCell id="xLMiuTTUpVqssLKdSycB-152" value="1:М" style="text;html=1;align=center;verticalAlign=middle;resizable=0;points=[];autosize=1;strokeColor=none;fillColor=none;" vertex="1" parent="1">
          <mxGeometry x="10" y="365" width="40" height="30" as="geometry" />
        </mxCell>
        <mxCell id="xLMiuTTUpVqssLKdSycB-153" value="0:1" style="text;html=1;align=center;verticalAlign=middle;resizable=0;points=[];autosize=1;strokeColor=none;fillColor=none;" vertex="1" parent="1">
          <mxGeometry x="-150" y="370" width="40" height="30" as="geometry" />
        </mxCell>
        <mxCell id="xLMiuTTUpVqssLKdSycB-154" value="0:1" style="text;html=1;align=center;verticalAlign=middle;resizable=0;points=[];autosize=1;strokeColor=none;fillColor=none;" vertex="1" parent="1">
          <mxGeometry x="200" y="345" width="40" height="30" as="geometry" />
        </mxCell>
        <mxCell id="xLMiuTTUpVqssLKdSycB-155" value="1:М" style="text;html=1;align=center;verticalAlign=middle;resizable=0;points=[];autosize=1;strokeColor=none;fillColor=none;" vertex="1" parent="1">
          <mxGeometry x="310" y="320" width="40" height="30" as="geometry" />
        </mxCell>
        <mxCell id="xLMiuTTUpVqssLKdSycB-156" value="1:М" style="text;html=1;align=center;verticalAlign=middle;resizable=0;points=[];autosize=1;strokeColor=none;fillColor=none;" vertex="1" parent="1">
          <mxGeometry x="374" y="70" width="40" height="30" as="geometry" />
        </mxCell>
        <mxCell id="xLMiuTTUpVqssLKdSycB-157" value="0:М" style="text;html=1;align=center;verticalAlign=middle;resizable=0;points=[];autosize=1;strokeColor=none;fillColor=none;" vertex="1" parent="1">
          <mxGeometry x="540" y="250" width="40" height="30" as="geometry" />
        </mxCell>
        <mxCell id="xLMiuTTUpVqssLKdSycB-158" value="0:1" style="text;html=1;align=center;verticalAlign=middle;resizable=0;points=[];autosize=1;strokeColor=none;fillColor=none;" vertex="1" parent="1">
          <mxGeometry x="640" y="290" width="40" height="30" as="geometry" />
        </mxCell>
        <mxCell id="xLMiuTTUpVqssLKdSycB-160" value="" style="edgeStyle=orthogonalEdgeStyle;shape=link;rounded=0;orthogonalLoop=1;jettySize=auto;html=1;exitX=0.75;exitY=1;exitDx=0;exitDy=0;entryX=0.5;entryY=0;entryDx=0;entryDy=0;" edge="1" parent="1" source="xLMiuTTUpVqssLKdSycB-1" target="xLMiuTTUpVqssLKdSycB-3">
          <mxGeometry relative="1" as="geometry">
            <mxPoint x="675" y="130" as="sourcePoint" />
            <mxPoint x="877" y="420" as="targetPoint" />
          </mxGeometry>
        </mxCell>
        <mxCell id="xLMiuTTUpVqssLKdSycB-159" value="0:М" style="text;html=1;align=center;verticalAlign=middle;resizable=0;points=[];autosize=1;strokeColor=none;fillColor=none;" vertex="1" parent="1">
          <mxGeometry x="870" y="395" width="40" height="30" as="geometry" />
        </mxCell>
        <mxCell id="xLMiuTTUpVqssLKdSycB-161" value="1:М" style="text;html=1;align=center;verticalAlign=middle;resizable=0;points=[];autosize=1;strokeColor=none;fillColor=none;" vertex="1" parent="1">
          <mxGeometry x="780" y="-10" width="40" height="30" as="geometry" />
        </mxCell>
        <mxCell id="xLMiuTTUpVqssLKdSycB-162" value="0:М" style="text;html=1;align=center;verticalAlign=middle;resizable=0;points=[];autosize=1;strokeColor=none;fillColor=none;" vertex="1" parent="1">
          <mxGeometry x="510" y="70" width="40" height="30" as="geometry" />
        </mxCell>
        <mxCell id="xLMiuTTUpVqssLKdSycB-163" value="1:М" style="text;html=1;align=center;verticalAlign=middle;resizable=0;points=[];autosize=1;strokeColor=none;fillColor=none;" vertex="1" parent="1">
          <mxGeometry x="474" y="290" width="40" height="30" as="geometry" />
        </mxCell>
        <mxCell id="xLMiuTTUpVqssLKdSycB-164" value="1:М" style="text;html=1;align=center;verticalAlign=middle;resizable=0;points=[];autosize=1;strokeColor=none;fillColor=none;" vertex="1" parent="1">
          <mxGeometry x="220" y="150" width="40" height="30" as="geometry" />
        </mxCell>
        <mxCell id="xLMiuTTUpVqssLKdSycB-165" value="1:М" style="text;html=1;align=center;verticalAlign=middle;resizable=0;points=[];autosize=1;strokeColor=none;fillColor=none;" vertex="1" parent="1">
          <mxGeometry y="-25" width="40" height="30" as="geometry" />
        </mxCell>
        <mxCell id="xLMiuTTUpVqssLKdSycB-166" value="0:1" style="text;html=1;align=center;verticalAlign=middle;resizable=0;points=[];autosize=1;strokeColor=none;fillColor=none;" vertex="1" parent="1">
          <mxGeometry y="55" width="40" height="30" as="geometry" />
        </mxCell>
        <mxCell id="xLMiuTTUpVqssLKdSycB-167" value="1:М" style="text;html=1;align=center;verticalAlign=middle;resizable=0;points=[];autosize=1;strokeColor=none;fillColor=none;" vertex="1" parent="1">
          <mxGeometry x="230" y="-260" width="40" height="30" as="geometry" />
        </mxCell>
        <mxCell id="xLMiuTTUpVqssLKdSycB-168" value="1:М" style="text;html=1;align=center;verticalAlign=middle;resizable=0;points=[];autosize=1;strokeColor=none;fillColor=none;" vertex="1" parent="1">
          <mxGeometry x="390" y="-260" width="40" height="30" as="geometry" />
        </mxCell>
      </root>
    </mxGraphModel>
  </diagram>
</mxfile>
